<?xml version="1.0" encoding="UTF-8"?>
<svg version="1.1" xmlns="http://www.w3.org/2000/svg" width="4167" height="4167">
<path d="M0 0 C1375.11 0 2750.22 0 4167 0 C4167 1375.11 4167 2750.22 4167 4167 C2791.89 4167 1416.78 4167 0 4167 C0 2791.89 0 1416.78 0 0 Z " fill="#FEFEFE" transform="translate(0,0)"/>
<path d="M0 0 C33.0825 -0.061875 66.165 -0.12375 100.25 -0.1875 C110.64532227 -0.21481201 121.04064453 -0.24212402 131.75097656 -0.27026367 C144.57373047 -0.28381348 144.57373047 -0.28381348 150.60150146 -0.28633118 C154.75698788 -0.28909439 158.912356 -0.3002076 163.06781006 -0.31672668 C225.67044282 -0.55431611 225.67044282 -0.55431611 250 8 C251.13566406 8.391875 252.27132812 8.78375 253.44140625 9.1875 C266.2852856 14.07428263 277.07257719 23.48075759 282.90625 36.0546875 C287.03580249 47.17498242 289.13775164 58.84469716 289.203125 70.6875 C289.20882507 71.50766602 289.21452515 72.32783203 289.22039795 73.17285156 C289.22980167 74.9041212 289.23636341 76.63540837 289.24023438 78.36669922 C289.24986966 80.96485282 289.28090778 83.56219009 289.3125 86.16015625 C289.43466077 105.31366086 286.58708754 124.78031899 274 140 C273.50113281 140.62261719 273.00226562 141.24523438 272.48828125 141.88671875 C264.99443443 150.28662262 252.74109367 156.11036064 242 159 C241.01 159 240.02 159 239 159 C251.1262779 183.61155746 263.82622417 207.97363531 276.8359375 232.12890625 C277.51946437 233.39948764 278.20297667 234.67007687 278.88647461 235.94067383 C280.22476142 238.42819299 281.56726183 240.91337196 282.91235352 243.3972168 C283.52780029 244.539729 284.14324707 245.68224121 284.77734375 246.859375 C285.60093384 248.38256348 285.60093384 248.38256348 286.44116211 249.93652344 C288.12303837 253.24179882 289.57385224 256.57767437 291 260 C283.39421381 260.18558524 275.78866296 260.32761753 268.18112659 260.41449738 C264.64817505 260.45620407 261.11677514 260.51273508 257.5847168 260.60351562 C253.5211729 260.70729934 249.45925093 260.7459247 245.39453125 260.78125 C243.49741142 260.84318542 243.49741142 260.84318542 241.56196594 260.90637207 C233.04063487 260.9107325 233.04063487 260.9107325 230.19444275 258.41983032 C228.85508851 256.33379529 227.91671127 254.30044655 227 252 C226.36551327 250.79777268 225.72003528 249.60126397 225.06225586 248.41162109 C224.4429373 247.20068426 223.82723774 245.98789091 223.21484375 244.7734375 C222.87730576 244.11225922 222.53976776 243.45108093 222.19200134 242.76986694 C221.4748138 241.36498824 220.75904451 239.95938472 220.0446167 238.55310059 C214.78816121 228.21174382 209.48732918 217.90378897 203.875 207.75 C199.39913223 199.6379319 195.05532847 191.46291741 190.784729 183.24133301 C190.09875796 181.9211837 189.41139511 180.6017566 188.72259521 179.28308105 C187.76387716 177.4461279 186.81076152 175.60638371 185.859375 173.765625 C185.30733398 172.70118164 184.75529297 171.63673828 184.18652344 170.54003906 C183 168 183 168 183 166 C141.09 166 99.18 166 56 166 C56 197.02 56 228.04 56 260 C37.52 260 19.04 260 0 260 C0 174.2 0 88.4 0 0 Z " fill="#123257" transform="translate(2834,1791)"/>
<path d="M0 0 C1.19606873 -0.00099701 2.39213745 -0.00199402 3.62445068 -0.00302124 C95.64520447 0.0056497 95.64520447 0.0056497 124.70703125 28.2734375 C132.79727542 36.84321813 138.15462722 46.96062938 141.5625 58.1875 C141.83835937 59.08597656 142.11421875 59.98445313 142.3984375 60.91015625 C150.08017214 88.55679526 149.98180519 124.99511669 140.5625 152.1875 C140.22605469 153.21617187 139.88960937 154.24484375 139.54296875 155.3046875 C133.25111728 173.19122177 121.41084834 186.5492308 104.5625 195.1875 C88.1594434 202.79872584 70.44644684 205.69192226 52.5625 207.1875 C51.60565811 207.27086105 50.64881622 207.35422211 49.66297913 207.44010925 C40.07659743 208.20823386 30.56080829 208.33430383 20.94921875 208.3203125 C19.28359462 208.32098875 17.6179706 208.32196143 15.9523468 208.32321167 C12.4823003 208.32467477 9.01227977 208.32258003 5.54223633 208.31787109 C1.14547742 208.31218817 -3.25122022 208.31545266 -7.64797688 208.32144356 C-11.08255963 208.32509849 -14.51712843 208.32388801 -17.95171165 208.32131577 C-19.57044673 208.32065935 -21.18918316 208.32142864 -22.80791664 208.32379532 C-57.71479091 208.36363802 -97.92466527 207.05466448 -124.4375 181.1875 C-148.2374499 154.37965754 -148.12882545 116.38732912 -146.16015625 82.60546875 C-144.31616919 58.56141818 -136.1718095 38.89635552 -118.51953125 22.39453125 C-101.44904552 8.33870084 -78.7112819 4.36659727 -57.4375 2.1875 C-56.47682617 2.08308594 -55.51615234 1.97867188 -54.52636719 1.87109375 C-36.3843746 -0.01285947 -18.22008421 0.00402288 0 0 Z " fill="#25AAE1" transform="translate(2109.4375,2173.8125)"/>
<path d="M0 0 C0 98.67 0 197.34 0 299 C-116.82 299 -233.64 299 -354 299 C-346.68369434 291.68369434 -339.01402605 284.95061969 -330.9765625 278.44140625 C-327.65215877 275.71469716 -324.38395641 272.9292704 -321.125 270.125 C-314.98295547 264.84004339 -308.80907722 259.59467273 -302.61767578 254.36767578 C-300.97091021 252.97540583 -299.32689933 251.57994527 -297.68359375 250.18359375 C-292.69973752 245.95146367 -287.70440728 241.74262602 -282.625 237.625 C-277.50186933 233.45778876 -272.52405072 229.13687543 -267.54736328 224.79736328 C-263.06268483 220.89590946 -258.49527292 217.11522093 -253.875 213.375 C-250.36452361 210.47504125 -246.93167273 207.49241862 -243.5 204.5 C-238.36772344 200.02465484 -233.16814726 195.65992874 -227.875 191.375 C-224.36452247 188.4750403 -220.93170065 185.49238805 -217.5 182.5 C-212.34148689 178.00252023 -207.11842906 173.61004548 -201.80078125 169.30078125 C-197.92833207 166.11964796 -194.13271217 162.85246445 -190.33398438 159.58398438 C-184.7858128 154.81025769 -179.20125646 150.08068993 -173.60888672 145.35888672 C-171.44696837 143.53290227 -169.2867642 141.70489675 -167.12670898 139.87670898 C-166.04433746 138.96068121 -164.96181847 138.04482764 -163.87915039 137.12915039 C-161.14363268 134.81543212 -158.40998789 132.49956105 -155.6796875 130.1796875 C-150.69685653 125.94920376 -145.70297285 121.7414632 -140.625 117.625 C-135.50186933 113.45778876 -130.52405072 109.13687543 -125.54736328 104.79736328 C-121.06268483 100.89590946 -116.49527292 97.11522093 -111.875 93.375 C-108.36452247 90.4750403 -104.93170065 87.49238805 -101.5 84.5 C-96.34148689 80.00252023 -91.11842906 75.61004548 -85.80078125 71.30078125 C-81.92833207 68.11964796 -78.13271217 64.85246445 -74.33398438 61.58398438 C-68.7858128 56.81025769 -63.20125646 52.08068993 -57.60888672 47.35888672 C-54.90427711 45.07453814 -52.20227873 42.78710492 -49.5 40.5 C-48.41667901 39.58331874 -47.33334568 38.66665207 -46.25 37.75 C-45.71375 37.29625 -45.1775 36.8425 -44.625 36.375 C-42.1875 34.3125 -42.1875 34.3125 -39.75 32.25 C-39.21358887 31.79608887 -38.67717773 31.34217773 -38.12451172 30.87451172 C-37.04290479 29.95935587 -35.96119931 29.0443165 -34.87939453 28.12939453 C-32.14382061 25.81556522 -29.41007526 23.49963529 -26.6796875 21.1796875 C-19.84644995 15.37767323 -12.96852763 9.63959367 -6 4 C-5.0925 3.25621094 -4.185 2.51242188 -3.25 1.74609375 C-1 0 -1 0 0 0 Z " fill="#113157" transform="translate(1390,2084)"/>
<path d="M0 0 C116.49 0 232.98 0 353 0 C353 97.68 353 195.36 353 296 C348.95017752 293.97508876 345.92507317 291.51664468 342.5625 288.5625 C341.30761097 287.47359025 340.05239524 286.3850569 338.796875 285.296875 C338.16330078 284.74580078 337.52972656 284.19472656 336.87695312 283.62695312 C334.03988635 281.16776829 331.17915925 278.73707204 328.3125 276.3125 C327.77496094 275.85746094 327.23742188 275.40242188 326.68359375 274.93359375 C323.33749762 272.10854422 319.960749 269.32481936 316.5625 266.5625 C311.69950576 262.60556582 306.94299797 258.53564058 302.19384766 254.44384766 C297.77968234 250.64836633 293.29666802 246.94722087 288.77734375 243.27734375 C285.09240857 240.25580056 281.46431679 237.16964049 277.83349609 234.08349609 C274.44026525 231.20442157 271.0172328 228.36788508 267.5625 225.5625 C262.69950576 221.60556582 257.94299797 217.53564058 253.19384766 213.44384766 C248.77691282 209.64598499 244.29046003 205.94319959 239.76953125 202.26953125 C233.89200589 197.45311061 228.12388086 192.505057 222.33398438 187.58398438 C216.77931966 182.8648039 211.21940075 178.15924951 205.5625 173.5625 C200.69950576 169.60556582 195.94299797 165.53564058 191.19384766 161.44384766 C186.77968234 157.64836633 182.29666802 153.94722087 177.77734375 150.27734375 C174.09240857 147.25580056 170.46431679 144.16964049 166.83349609 141.08349609 C163.44026525 138.20442157 160.0172328 135.36788508 156.5625 132.5625 C151.69950576 128.60556582 146.94299797 124.53564058 142.19384766 120.44384766 C137.77691282 116.64598499 133.29046003 112.94319959 128.76953125 109.26953125 C122.89200589 104.45311061 117.12388086 99.505057 111.33398438 94.58398438 C105.77931966 89.8648039 100.21940075 85.15924951 94.5625 80.5625 C89.69950576 76.60556582 84.94299797 72.53564058 80.19384766 68.44384766 C75.77691282 64.64598499 71.29046003 60.94319959 66.76953125 57.26953125 C60.89200589 52.45311061 55.12388086 47.505057 49.33398438 42.58398438 C43.77931966 37.8648039 38.21940075 33.15924951 32.5625 28.5625 C27.70727316 24.61188602 22.95536257 20.55167762 18.21801758 16.46142578 C13.59663205 12.48124231 8.88542162 8.63383345 4.109375 4.83984375 C2 3 2 3 0 0 Z " fill="#123258" transform="translate(1037,1787)"/>
<path d="M0 0 C48.4790625 -0.0309375 48.4790625 -0.0309375 97.9375 -0.0625 C108.11972412 -0.071604 118.30194824 -0.08070801 128.79272461 -0.09008789 C141.28430176 -0.09460449 141.28430176 -0.09460449 147.14332581 -0.09544373 C151.21091769 -0.09637048 155.27849634 -0.1000984 159.34608459 -0.10557556 C164.55295009 -0.11249269 169.75979668 -0.1144805 174.96666634 -0.11307228 C176.86608109 -0.11336625 178.76549657 -0.1153145 180.66490734 -0.11921513 C196.4986557 -0.15019069 212.15539449 0.22831754 227.8125 2.8125 C229.33520508 3.04163086 229.33520508 3.04163086 230.88867188 3.27539062 C248.65835844 6.13709063 266.39510133 13.1645933 277.2890625 28.1484375 C287.82830131 44.58965004 289.53834524 62.98634678 289.39111328 82.14160156 C289.3749584 84.63141215 289.39111688 87.11961132 289.41015625 89.609375 C289.43632081 110.63285992 286.13467431 130.94190497 271.3125 146.71484375 C257.90030733 159.9684463 240.11385592 164.82024433 221.875 167.1875 C220.69035156 167.35185547 219.50570312 167.51621094 218.28515625 167.68554688 C206.4054428 169.30312638 194.80212189 170.1472438 182.80786133 170.11352539 C181.41709393 170.11324265 180.02632639 170.11340295 178.63555908 170.1139679 C174.89458087 170.11425247 171.15363533 170.10841104 167.41266465 170.10139394 C163.49025533 170.09510348 159.5678451 170.09455213 155.64543152 170.09336853 C148.23322875 170.09027189 140.82104088 170.08208117 133.40884465 170.07201904 C123.38182693 170.05870541 113.35480507 170.05334451 103.32778072 170.04751682 C87.55184267 170.03814001 71.77593606 170.01821001 56 170 C56 199.7 56 229.4 56 260 C37.52 260 19.04 260 0 260 C0 174.2 0 88.4 0 0 Z " fill="#123258" transform="translate(2194,1791)"/>
<path d="M0 0 C23.1 0 46.2 0 70 0 C76.74599407 13.49198813 76.74599407 13.49198813 78.83203125 18.36328125 C79.31115967 19.47614502 79.79028809 20.58900879 80.28393555 21.7355957 C80.78836182 22.91597412 81.29278809 24.09635254 81.8125 25.3125 C82.66157152 27.28692446 83.51205766 29.26073612 84.36256409 31.23454285 C84.9647065 32.63217296 85.56645557 34.02997261 86.16783142 35.42793274 C89.81386421 43.90129013 93.50047386 52.35692005 97.1875 60.8125 C97.53828613 61.61751953 97.88907227 62.42253906 98.25048828 63.25195312 C102.46570134 72.92520337 106.69584668 82.59174541 110.9453125 92.25 C111.35378922 93.17874435 111.76226593 94.10748871 112.18312073 95.06437683 C114.15713099 99.55215715 116.13296299 104.03911903 118.11206055 108.5246582 C121.53745354 116.29988199 124.95586719 124.06500266 128 132 C135.12383535 119.01955001 141.49381618 105.73186478 147.75512695 92.32226562 C152.3195641 82.54986935 156.96552305 72.82218343 161.6875 63.125 C168.13603372 49.87118992 174.36375139 36.52510529 180.54394531 23.14404297 C182.76046221 18.35794226 184.99891094 13.58242476 187.25 8.8125 C187.62108887 8.02198242 187.99217773 7.23146484 188.37451172 6.41699219 C190.88168463 1.11831537 190.88168463 1.11831537 192 0 C193.65738443 -0.09346915 195.31874644 -0.11744977 196.97875977 -0.11352539 C198.03978409 -0.11344986 199.10080841 -0.11337433 200.19398499 -0.11329651 C201.348134 -0.10813522 202.50228302 -0.10297394 203.69140625 -0.09765625 C204.86638168 -0.0962413 206.04135712 -0.09482635 207.25193787 -0.09336853 C211.02215064 -0.08774992 214.79230504 -0.07519426 218.5625 -0.0625 C221.11132727 -0.0574874 223.66015547 -0.05292408 226.20898438 -0.04882812 C232.47267633 -0.03777444 238.73633399 -0.02101821 245 0 C250.29861865 10.55002968 255.53775923 21.12648662 260.6875 31.75 C261.02971588 32.45555023 261.37193176 33.16110046 261.72451782 33.88803101 C268.65163626 48.18166942 275.35598136 62.57258333 282 77 C291.03487166 96.69138634 291.03487166 96.69138634 300.56640625 116.14453125 C307 128.95912807 307 128.95912807 307 132 C307.66 132 308.32 132 309 132 C309.25942383 131.17032715 309.51884766 130.3406543 309.78613281 129.48583984 C311.12839276 125.6312969 312.73686903 121.93916325 314.421875 118.2265625 C314.75818939 117.47891632 315.09450378 116.73127014 315.44100952 115.96096802 C316.16443286 114.35312846 316.88907048 112.7458348 317.61480713 111.13903809 C319.55460118 106.8431019 321.48427253 102.54262485 323.4140625 98.2421875 C323.99986588 96.93731384 323.99986588 96.93731384 324.59750366 95.6060791 C328.15423266 87.67467277 331.65156837 79.71817183 335.125 71.75 C336.25638544 69.15619548 337.38793661 66.56246327 338.51953125 63.96875 C338.80015915 63.32539703 339.08078705 62.68204407 339.36991882 62.01919556 C362.57359738 8.85280524 362.57359738 8.85280524 367 0 C390.43 0 413.86 0 438 0 C435.75048757 6.74853729 435.75048757 6.74853729 434.23510742 9.81689453 C433.72691216 10.85352737 433.72691216 10.85352737 433.20845032 11.91110229 C432.66247444 13.01084885 432.66247444 13.01084885 432.10546875 14.1328125 C431.72202805 14.91359161 431.33858734 15.69437073 430.94352722 16.49880981 C430.12168452 18.17217336 429.29832012 19.84479027 428.47357178 21.51672363 C426.29188482 25.9413931 424.12336093 30.3724826 421.95703125 34.8046875 C421.52571899 35.68713135 421.09440674 36.5695752 420.65002441 37.47875977 C417.13181238 44.69417291 413.7235203 51.9540988 410.375 59.25 C405.55771808 69.73835727 400.5653837 80.12978878 395.5 90.5 C389.82965379 102.10926713 384.2852353 113.7615156 378.88500977 125.49951172 C374.35868599 135.30549247 369.6503117 145.01721654 364.91366577 154.72290039 C359.72701962 165.35562621 354.6828105 176.04046582 349.80444336 186.81884766 C349.13554077 188.289104 349.13554077 188.289104 348.453125 189.7890625 C347.88319824 191.05290771 347.88319824 191.05290771 347.30175781 192.34228516 C345.68635936 195.64033984 343.82203112 198.81144555 342 202 C320.22 202 298.44 202 276 202 C268.77153419 186.58419027 261.59156943 171.16021872 254.625 155.625 C250.87352723 147.26222766 247.08420781 138.94127936 242.90039062 130.78417969 C237.92251024 121.02394076 233.52532522 110.97526265 229 101 C228.02501133 98.8566472 227.04975269 96.71341718 226.07421875 94.5703125 C223.71303841 89.38161665 221.3551691 84.19142692 219 79 C211.89028914 92.82198446 205.38898471 106.92856668 198.84667969 121.02441406 C196.19560116 126.73456336 193.53120173 132.43849024 190.86730957 138.14266968 C189.41881381 141.24460143 187.97113965 144.34691655 186.5234375 147.44921875 C186.235896 148.06535538 185.94835449 148.681492 185.65209961 149.31629944 C183.84151194 153.19613466 182.03154519 157.07625901 180.22198486 160.95657349 C178.98635355 163.60612756 177.7505078 166.25558159 176.51464844 168.9050293 C175.66580948 170.72500152 174.81727212 172.54511441 173.96875 174.36523438 C169.66699647 183.58698863 165.33288253 192.79262462 161 202 C139.22 202 117.44 202 95 202 C76.05546513 163.29318056 76.05546513 163.29318056 67.85473633 145.44042969 C63.53166482 136.06299375 59.03184598 126.77791513 54.5 117.5 C48.83253865 105.89663924 43.28926152 94.25104317 37.89379883 82.51806641 C33.28042229 72.5201392 28.4694371 62.62388841 23.6401062 52.72897339 C19.46964122 44.1779615 15.38356557 35.60821148 11.60791016 26.8737793 C9.1423263 21.20014256 6.39929767 15.68544293 3.5234375 10.20874023 C1.69280746 6.66376252 0.80006154 4.00030771 0 0 Z " fill="#25AAE1" transform="translate(2281,2177)"/>
<path d="M0 0 C84.48 0 168.96 0 256 0 C256 16.83 256 33.66 256 51 C190 51 124 51 56 51 C56 67.83 56 84.66 56 102 C119.36 102 182.72 102 248 102 C248 118.83 248 135.66 248 153 C184.64 153 121.28 153 56 153 C56 171.48 56 189.96 56 209 C123.65 209 191.3 209 261 209 C261 225.83 261 242.66 261 260 C174.87 260 88.74 260 0 260 C0 174.2 0 88.4 0 0 Z " fill="#123257" transform="translate(2529,1791)"/>
<path d="M0 0 C3.25303173 1.95181904 5.65858745 3.40620208 8.3828125 5.8203125 C8.98689941 6.35092285 9.59098633 6.8815332 10.21337891 7.42822266 C10.84421387 7.98815918 11.47504883 8.5480957 12.125 9.125 C17.4232595 13.77433537 22.77985274 18.32017744 28.2578125 22.7578125 C31.37000148 25.30253683 34.43726497 27.89618225 37.5 30.5 C41.46899152 33.87288602 45.4601718 37.21176774 49.5 40.5 C54.1045358 44.24787798 58.64019191 48.06983444 63.1640625 51.9140625 C66.5805954 54.81244823 70.02504838 57.671551 73.5 60.5 C77.41292806 63.68559705 81.28158889 66.91862852 85.125 70.1875 C90.18573093 74.49137203 95.30012164 78.72549509 100.4375 82.9375 C106.39335593 87.82247543 112.27858619 92.77840685 118.11083984 97.81005859 C122.4216241 101.52298776 126.8059583 105.13611592 131.22265625 108.72265625 C134.34396367 111.28204054 137.4245003 113.88593791 140.5 116.5 C144.46903543 119.87283589 148.46017021 123.21176645 152.5 126.5 C157.1045358 130.24787798 161.64019191 134.06983444 166.1640625 137.9140625 C169.5805954 140.81244823 173.02504838 143.671551 176.5 146.5 C181.1045358 150.24787798 185.64019191 154.06983444 190.1640625 157.9140625 C194.44740948 161.54780235 198.787994 165.10662437 203.14453125 168.65234375 C208.48130877 173.04003634 213.73738641 177.52385012 219 182 C217.76661202 185.70016395 216.36179556 186.54703034 213.3125 188.9375 C208.7952061 192.54078891 204.3713176 196.22111886 200 200 C194.98760162 204.32019064 189.91459467 208.55099728 184.77734375 212.72265625 C181.65603633 215.28204054 178.5754997 217.88593791 175.5 220.5 C170.65045949 224.62107792 165.74839036 228.66991483 160.8125 232.6875 C157.68200334 235.26146392 154.58827539 237.87569086 151.5 240.5 C147.53092065 243.87278574 143.53983137 247.21176517 139.5 250.5 C133.26083244 255.58175677 127.13108038 260.78894106 121 266 C113.98765442 271.9600827 106.95039195 277.87758795 99.8125 283.6875 C96.68200334 286.26146392 93.58827539 288.87569086 90.5 291.5 C85.65040619 295.62101634 80.74839194 299.66991354 75.8125 303.6875 C72.68200334 306.26146392 69.58827539 308.87569086 66.5 311.5 C61.65040619 315.62101634 56.74839194 319.66991354 51.8125 323.6875 C48.1190609 326.7243277 44.47701514 329.81960955 40.83374023 332.91625977 C37.44045891 335.7954532 34.01732214 338.63204237 30.5625 341.4375 C26.29253831 344.91073414 22.10526767 348.46826291 17.9375 352.0625 C1.7570061 366 1.7570061 366 0 366 C0 245.22 0 124.44 0 0 Z " fill="#24ABE2" transform="translate(1036,1902)"/>
<path d="M0 0 C99 0 198 0 300 0 C300 16.5 300 33 300 50 C221.79 50 143.58 50 63 50 C63 67.16 63 84.32 63 102 C137.58 102 212.16 102 289 102 C289 118.83 289 135.66 289 153 C214.42 153 139.84 153 63 153 C63 188.31 63 223.62 63 260 C42.21 260 21.42 260 0 260 C0 174.2 0 88.4 0 0 Z " fill="#25AAE1" transform="translate(1467,2119)"/>
<path d="M0 0 C18.48 0 36.96 0 56 0 C56 33.66 56 67.32 56 102 C118.04 102 180.08 102 244 102 C244 68.34 244 34.68 244 0 C262.48 0 280.96 0 300 0 C300 85.8 300 171.6 300 260 C281.52 260 263.04 260 244 260 C244 224.69 244 189.38 244 153 C181.96 153 119.92 153 56 153 C56 188.31 56 223.62 56 260 C37.52 260 19.04 260 0 260 C0 174.2 0 88.4 0 0 Z " fill="#123257" transform="translate(1466,1791)"/>
<path d="M0 0 C9.78802351 -0.16244874 19.57572451 -0.28669922 29.36482334 -0.3626852 C33.91077472 -0.39916209 38.45580146 -0.4486083 43.0012207 -0.52807617 C47.39091463 -0.60433803 51.77972136 -0.64603199 56.17002678 -0.6641407 C57.84182638 -0.67703904 59.51357935 -0.70222809 61.18499947 -0.7401104 C74.28563966 -1.02512626 74.28563966 -1.02512626 78.55747986 1.52928162 C80.31617318 3.26530486 81.66136407 4.93177368 83 7 C83.63808594 7.71027344 84.27617188 8.42054687 84.93359375 9.15234375 C85.67802734 10.03599609 85.67802734 10.03599609 86.4375 10.9375 C88.85617779 13.74576347 91.35899683 16.39970593 94 19 C97.25029983 22.20029522 100.24724245 25.54224576 103.21875 29 C105.0742521 31.08337078 107.01223101 33.04281207 109 35 C112.25029983 38.20029522 115.24724245 41.54224576 118.21875 45 C120.70257428 47.78885533 123.36711437 50.37686983 126.02734375 52.99609375 C128.57337829 55.58246151 130.92021557 58.3153528 133.28515625 61.06640625 C134.96004299 62.95494597 136.69947587 64.73155648 138.5 66.5 C140.93389732 68.89053167 143.21355559 71.35046262 145.4375 73.9375 C147.85617779 76.74576347 150.35899683 79.39970593 153 82 C155.62040609 84.58009215 158.10323412 87.21103607 160.5 90 C164.12777017 94.21583337 168.03455835 98.10453673 172 102 C173.66785417 103.66547831 175.33477446 105.33189345 177 107 C182.63873398 101.45303565 188.18626043 95.91538456 193.32421875 89.89453125 C195.76532539 87.134772 198.402906 84.58789024 201.02734375 82.00390625 C203.57337829 79.41753849 205.92021557 76.6846472 208.28515625 73.93359375 C210.50169397 71.43430862 212.87162281 69.11718116 215.25390625 66.77734375 C217.06477643 64.93406426 218.75321354 63.02177201 220.4375 61.0625 C222.85617779 58.25423653 225.35899683 55.60029407 228 53 C230.62040609 50.41990785 233.10323412 47.78896393 235.5 45 C238.51762353 41.48858352 241.73359081 38.24692598 245.03125 35 C246.93986455 33.06108998 248.72710552 31.06300449 250.5 29 C253.51641923 25.48998489 256.73095132 22.24948724 260.02734375 19.00390625 C262.56572416 16.42531388 264.90650166 13.70207737 267.26171875 10.95703125 C269.59595705 8.32904611 272.08764296 5.88411105 274.6171875 3.4453125 C276.10854485 2.02890223 276.10854485 2.02890223 277 0 C302.41 0 327.82 0 354 0 C350.45170237 4.13968056 347.12759179 7.99341627 343.28515625 11.77734375 C342.43373047 12.62103516 341.58230469 13.46472656 340.70507812 14.33398438 C338.94729449 16.06578451 337.18948212 17.79755547 335.43164062 19.52929688 C331.04918772 23.87199964 326.84445872 28.26466324 322.82983398 32.94750977 C318.27007254 38.06210809 313.26213144 42.77163171 308.3828125 47.578125 C304.63458062 51.29217847 300.93586363 54.99283352 297.5 59 C292.47574519 64.85966955 286.87758088 70.16536808 281.3828125 75.578125 C277.63458062 79.29217847 273.93586363 82.99283352 270.5 87 C265.47574519 92.85966955 259.87758088 98.16536808 254.3828125 103.578125 C250.63458062 107.29217847 246.93586363 110.99283352 243.5 115 C238.47574519 120.85966955 232.87758088 126.16536808 227.3828125 131.578125 C223.03094135 135.89031343 218.7982403 140.21935188 214.86328125 144.91796875 C213 147 213 147 211.31795406 148.36454868 C207.58686224 151.55703046 205.56355381 153.8795108 205.12025452 158.86595154 C205.0825208 160.75197375 205.08264412 162.63899962 205.11352539 164.52514648 C205.10274963 165.56004715 205.09197388 166.59494781 205.08087158 167.66120911 C205.05357009 171.06523669 205.07532467 174.46706055 205.09765625 177.87109375 C205.08826953 180.23764925 205.07581075 182.60419439 205.06040955 184.97071838 C205.02818915 191.18679 205.03762469 197.40212371 205.05578613 203.6182251 C205.0689087 211.08317802 205.03020523 218.54802105 205.00020599 226.01290131 C204.96046996 237.3423455 204.98649575 248.66993083 205 260 C186.52 260 168.04 260 149 260 C149.03222656 252.53632812 149.06445312 245.07265625 149.09765625 237.3828125 C149.09803775 232.64311283 149.09576797 227.90370945 149.08398438 223.1640625 C149.06554819 215.64746033 149.05671585 208.13173628 149.10620117 200.61523438 C149.14550128 194.55230156 149.14078995 188.49082805 149.10607719 182.42788315 C149.10049554 180.11953034 149.11054244 177.81108307 149.13676643 175.50287247 C149.82609279 161.13660071 149.82609279 161.13660071 143.73071289 148.80664062 C142.19532331 147.48782943 140.62268007 146.2097907 139 145 C138.1239209 144.09169434 137.2478418 143.18338867 136.34521484 142.24755859 C135.64090332 141.55484863 134.9365918 140.86213867 134.2109375 140.1484375 C133.41429687 139.35953125 132.61765625 138.570625 131.796875 137.7578125 C130.99765625 136.97148438 130.1984375 136.18515625 129.375 135.375 C120.40968235 126.55289828 120.40968235 126.55289828 116.5390625 122.0390625 C112.29282212 117.09393352 107.6408058 112.57154004 103 108 C97.73968794 102.81820006 92.60749253 97.62939118 87.80078125 92.0234375 C84.22174099 88.00186948 80.33542131 84.27483014 76.5 80.5 C67.40262672 71.5463451 67.40262672 71.5463451 63.53125 67.03125 C59.28811954 62.08832335 54.63816274 57.56893643 50 53 C40.37089205 43.51461008 40.37089205 43.51461008 36.53125 39.03125 C32.13857072 33.90817206 27.30278441 29.23485253 22.5 24.5 C14.54123421 16.65380515 7.14677344 8.578676 0 0 Z " fill="#123257" transform="translate(1803,1791)"/>
<path d="M0 0 C1.53059925 -0.003225 3.06119822 -0.00658993 4.59179688 -0.01008606 C7.78890698 -0.01603976 10.98599022 -0.01793002 14.18310547 -0.01733398 C17.42176936 -0.01725298 20.66029105 -0.02416008 23.89892578 -0.0378418 C82.24485619 -0.28049631 82.24485619 -0.28049631 96.0625 10.16796875 C105.19044774 21.07079522 103.2492442 38.81186531 103.24780273 52.2578125 C103.24999017 54.5327424 103.26822591 56.80718641 103.28710938 59.08203125 C103.39908483 87.87630447 103.39908483 87.87630447 95.71484375 96.71875 C73.47591679 116.82273997 13.55088193 108.1633377 -13.65991211 107.05731201 C-18.66268437 106.80156873 -23.63993202 106.40837266 -28.625 105.91796875 C-29.74253662 105.80880127 -30.86007324 105.69963379 -32.01147461 105.5871582 C-40.61101777 104.56268329 -51.92647522 102.93037162 -57.9375 96.16796875 C-65.82559258 84.93510193 -64.28209026 68.8425334 -64.25317383 55.78515625 C-64.25001342 52.80561711 -64.27354971 49.82707345 -64.29882812 46.84765625 C-64.39168613 19.46066753 -64.39168613 19.46066753 -58.0625 10.48046875 C-50.22796647 2.9087288 -37.24866319 2.27351809 -26.9375 1.16796875 C-25.84588058 1.04353897 -25.84588058 1.04353897 -24.73220825 0.91659546 C-16.49146126 0.06016725 -8.27507053 0.00415636 0 0 Z " fill="#FDFEFE" transform="translate(2089.9375,2224.83203125)"/>
<path d="M0 0 C20.79 0 41.58 0 63 0 C63 85.8 63 171.6 63 260 C42.21 260 21.42 260 0 260 C0 174.2 0 88.4 0 0 Z " fill="#25AAE2" transform="translate(1833,2119)"/>
<path d="M0 0 C36.05778128 -0.1209091 36.05778128 -0.1209091 51.27734375 -0.14648438 C61.74695289 -0.16422004 72.2164891 -0.18496167 82.68603516 -0.22631836 C90.31415263 -0.25643622 97.9422104 -0.27562549 105.57038569 -0.28226548 C109.60086517 -0.28614028 113.63117401 -0.29509661 117.66159821 -0.31719017 C146.60143118 -0.46915563 146.60143118 -0.46915563 158.69433594 1.26831055 C159.84185019 1.43059127 159.84185019 1.43059127 161.01254654 1.5961504 C166.31108069 2.5106238 171.96479074 4.30411552 175.32666016 8.75732422 C177.53360482 15.97988544 177.45345691 23.33796625 177.39111328 30.82080078 C177.37498444 33.12722472 177.39104673 35.43190945 177.41015625 37.73828125 C177.40817441 39.22396215 177.40433195 40.70964197 177.3984375 42.1953125 C177.40451019 42.87465851 177.41058289 43.55400452 177.4168396 44.25393677 C177.3303074 50.2121255 175.98002268 54.9575598 171.76953125 59.30078125 C168.51976614 61.29464278 165.36071167 62.32300033 161.6875 63.1875 C160.43324219 63.51105469 159.17898437 63.83460937 157.88671875 64.16796875 C141.54477338 67.33750885 124.28236078 66.13371188 107.71341133 66.10139394 C103.91648668 66.09507151 100.11956094 66.09454966 96.32263184 66.09336853 C89.15850704 66.0902811 81.99439782 66.0821032 74.83027983 66.07201904 C65.1311025 66.05866778 55.43192081 66.05333706 45.73273659 66.04751682 C30.48847944 66.03816108 15.24425511 66.01822507 0 66 C0 44.22 0 22.44 0 0 Z " fill="#FEFEFE" transform="translate(2250,1843)"/>
<path d="M0 0 C32.60515468 -0.1209091 32.60515468 -0.1209091 46.47460938 -0.14648438 C55.9775082 -0.16415057 65.48032615 -0.18468969 74.9831543 -0.22631836 C81.91003953 -0.25664768 88.83685791 -0.2756736 95.76380771 -0.28226548 C99.41626251 -0.28610591 103.06852642 -0.29482711 106.72091866 -0.31719017 C121.88196479 -0.40602725 136.93140269 -0.08857354 152.03491211 1.26831055 C153.320999 1.3764977 154.6070859 1.48468485 155.93214512 1.5961504 C162.82299203 2.28953006 168.12566281 3.24426628 174 7 C178.34782528 13.52173791 177.18611866 21.52653858 177.18530273 29.09179688 C177.1874864 31.36086873 177.20566014 33.62945167 177.22460938 35.8984375 C177.22754451 37.35676919 177.2295285 38.81510316 177.23046875 40.2734375 C177.23457764 41.58747559 177.23868652 42.90151367 177.24291992 44.25537109 C176.94122805 48.90597404 176.55919223 53.42745281 173.17578125 56.83984375 C160.64652514 63.52061406 143.80951051 63.30339491 129.98657227 63.22705078 C128.55580656 63.22648467 127.12504028 63.22680712 125.6942749 63.22793579 C121.86258797 63.22850251 118.03102988 63.21686042 114.19937253 63.20278788 C110.17556006 63.19016516 106.15174365 63.18910102 102.12791443 63.18673706 C94.53166094 63.18055583 86.93546599 63.16419117 79.33923811 63.14403808 C69.05789732 63.11736161 58.77654019 63.10667926 48.49517345 63.09503365 C32.33007191 63.0763076 16.16509381 63.03643979 0 63 C0 42.21 0 21.42 0 0 Z " fill="#FCFCFC" transform="translate(2890,1842)"/>
</svg>
